<svg width="64" height="64" viewBox="0 0 64 64" fill="none" xmlns="http://www.w3.org/2000/svg">
<path d="M55.3124 3.98828H8.62099C3.85975 3.98828 0 7.42051 0 11.6544V56.3338C0 60.5676 3.85975 63.9998 8.62099 63.9998H55.3124C60.0737 63.9998 63.9334 60.5676 63.9334 56.3338V11.6544C63.9334 7.42051 60.0737 3.98828 55.3124 3.98828Z" fill="#386775"/>
<path d="M25.0395 50.318C25.156 50.2514 25.2725 50.1848 25.389 50.1108C27.0533 50.1478 28.6926 50.0812 30.3735 49.8148C32.5454 49.467 34.6923 48.468 36.1486 46.9807C38.2539 44.8422 39.0111 42.0895 38.8697 39.285C38.7698 37.2279 37.4051 35.2226 35.3747 34.2902C35.3913 33.676 35.4163 33.0619 35.4579 32.4477C35.4995 31.8705 35.5661 31.2933 35.641 30.7162C35.6826 30.398 35.7242 30.0798 35.7658 29.7616C35.7824 29.6654 35.824 29.3546 35.8573 29.1622C35.8573 29.1548 35.8573 29.1474 35.8573 29.14C35.9072 28.8218 35.9572 28.5036 36.0071 28.1929C36.0986 27.6231 36.1902 27.0533 36.29 26.4835C36.548 24.9148 36.7893 23.3535 37.0223 21.7773C37.3718 19.3428 37.6215 16.9009 37.6381 14.4516C37.6381 14.2962 37.6298 14.1408 37.6131 13.9854C37.7296 13.5636 37.7879 13.1271 37.7879 12.6831C37.738 12.3575 37.688 12.0319 37.6381 11.7063L63.9671 23.8862V8.18407C63.9671 3.66285 59.8479 0 54.7636 0H9.26208C4.17769 0 0.0585938 3.66285 0.0585938 8.18407V51.8201C0.0585938 56.3413 4.17769 60.0042 9.26208 60.0042H39.4605L20.7872 51.3613C22.2684 51.3243 23.7164 51.0357 25.0478 50.3032L25.0395 50.318Z" fill="#0795AA"/>
<path d="M63.9919 51.8199V23.8786L37.6629 11.6987C37.7128 12.0243 37.7628 12.3499 37.8127 12.6755C37.8127 13.1269 37.7461 13.5561 37.6379 13.9778C37.6546 14.1332 37.6629 14.2886 37.6629 14.444C37.6463 16.9007 37.4049 19.3426 37.0471 21.7697C36.8224 23.3385 36.5728 24.9072 36.3148 26.4759C36.2233 27.0457 36.1234 27.6155 36.0319 28.1853C35.982 28.5034 35.932 28.8216 35.8821 29.1324C35.8821 29.1324 35.8821 29.1472 35.8821 29.1546C35.8571 29.347 35.8072 29.6578 35.7906 29.754C35.749 30.0722 35.7074 30.3904 35.6658 30.7086C35.5909 31.2857 35.5243 31.8629 35.4827 32.4401C35.4328 33.0543 35.4078 33.6684 35.3995 34.2826C37.4299 35.215 38.7946 37.2203 38.8945 39.2774C39.0276 42.0819 38.2704 44.8346 36.1734 46.9731C34.7171 48.453 32.5702 49.4594 30.3983 49.8072C28.7174 50.0736 27.0697 50.1402 25.4138 50.1032C25.2973 50.1698 25.1808 50.2438 25.0643 50.3104C23.7328 51.0429 22.2849 51.3315 20.8037 51.3685L39.477 60.0114H54.7967C59.8811 60.0114 64.0002 56.3485 64.0002 51.8273L63.9919 51.8199Z" fill="#0795aa"/>
<path d="M63.9919 51.8199V23.8786L37.6629 11.6987C37.7128 12.0243 37.7628 12.3499 37.8127 12.6755C37.8127 13.1269 37.7461 13.5561 37.6379 13.9778C37.6546 14.1332 37.6629 14.2886 37.6629 14.444C37.6463 16.9007 37.4049 19.3426 37.0471 21.7697C36.8224 23.3385 36.5728 24.9072 36.3148 26.4759C36.2233 27.0457 36.1234 27.6155 36.0319 28.1853C35.982 28.5034 35.932 28.8216 35.8821 29.1324C35.8821 29.1324 35.8821 29.1472 35.8821 29.1546C35.8571 29.347 35.8072 29.6578 35.7906 29.754C35.749 30.0722 35.7074 30.3904 35.6658 30.7086C35.5909 31.2857 35.5243 31.8629 35.4827 32.4401C35.4328 33.0543 35.4078 33.6684 35.3995 34.2826C37.4299 35.215 38.7946 37.2203 38.8945 39.2774C39.0276 42.0819 38.2704 44.8346 36.1734 46.9731C34.7171 48.453 32.5702 49.4594 30.3983 49.8072C28.7174 50.0736 27.0697 50.1402 25.4138 50.1032C25.2973 50.1698 25.1808 50.2438 25.0643 50.3104C23.7328 51.0429 22.2849 51.3315 20.8037 51.3685L39.477 60.0114H54.7967C59.8811 60.0114 64.0002 56.3485 64.0002 51.8273L63.9919 51.8199Z" fill="url(#paint0_linear_71_102)"/>
<path d="M42.0905 42.3558H39.5275V15.6059C39.5275 12.5499 36.7148 10.0562 33.2864 10.0562C31.5555 10.0562 29.9911 10.6925 28.8511 11.7063L20.4298 19.1874C18 21.3481 18 24.8778 20.4298 27.0385C22.2106 28.622 24.8235 29.0438 27.0453 28.3038V42.3558H24.4823C21.3701 42.3558 18.8404 44.5979 18.8404 47.3728C18.8404 50.1477 21.3618 52.3898 24.4823 52.3898H42.0905C45.2027 52.3898 47.7324 50.1477 47.7324 47.3728C47.7324 44.5979 45.211 42.3558 42.0905 42.3558Z" fill="#CAFF00"/>
<defs>
<linearGradient id="paint0_linear_71_102" x1="22.7592" y1="30.8048" x2="62.2547" y2="46.7724" gradientUnits="userSpaceOnUse">
<stop offset="0.05" stop-color="#606060"/>
<stop offset="1" stop-color="#0795AA"/>
</linearGradient>
</defs>
</svg>
