<svg width="115" height="114" viewBox="0 0 115 114" fill="none" xmlns="http://www.w3.org/2000/svg">
<path d="M81.8198 1.5498H31.9198C15.285 1.5498 1.7998 15.035 1.7998 31.6698V81.5698C1.7998 98.2046 15.285 111.69 31.9198 111.69H81.8198C98.4546 111.69 111.94 98.2046 111.94 81.5698V31.6698C111.94 15.035 98.4546 1.5498 81.8198 1.5498Z" fill="#1C3947"/>
<path d="M8.67949 68.1393C9.50949 67.4593 10.3395 66.7793 11.1895 66.1293C12.4895 69.8493 11.4295 75.5093 11.4295 79.5393C11.4295 79.5393 12.1795 88.8693 17.7695 94.0893C23.3695 99.3093 29.3295 101.179 29.3295 101.179L53.1995 101.549H81.9195C81.9195 101.549 92.7395 98.9393 97.5895 92.5993C102.439 86.2593 102.439 76.5593 102.439 76.5593V58.2793C102.439 58.2793 103.929 87.7493 106.919 86.6293C109.899 85.5093 111.769 79.1693 111.769 79.1693V92.5993C111.769 92.5993 109.909 97.0793 106.169 102.669C102.429 108.259 97.5595 109.749 97.5595 109.749L90.1295 111.619L63.6495 110.869L35.6695 111.619L21.8695 111.989C21.8695 111.989 11.0495 110.119 6.94949 103.039C2.84949 95.9493 0.979492 88.8693 0.979492 88.8693C1.16949 85.2293 1.39949 81.5893 1.64949 77.9593C1.87949 74.6393 1.75949 73.9193 4.33949 71.7793C5.78949 70.5793 7.21949 69.3393 8.66949 68.1393H8.67949Z" fill="#68788A"/>
<path d="M15.0191 22.0596C15.5991 21.1796 16.2791 20.3596 17.0791 19.6196C22.5991 14.4696 30.1491 11.0996 37.6991 10.7196C43.5091 10.4196 49.2791 11.7396 55.0991 11.9896C66.5991 12.4696 78.7991 8.84961 89.2391 13.7096C95.7891 16.7596 100.689 23.1096 101.989 30.2096C101.479 25.1996 105.559 20.1696 110.559 19.6496C109.879 12.4796 103.519 6.90961 96.6591 4.71961C89.7991 2.52961 82.4091 2.97961 75.2091 3.12961C65.8291 3.32961 56.4491 2.99961 47.1091 2.13961C39.3991 1.42961 31.6191 0.349612 23.9491 1.45961C14.4391 2.81961 4.83914 8.25961 2.86914 18.4096C2.58914 19.8496 2.55914 21.3196 2.52914 22.7796C2.47914 25.2296 2.42914 27.6796 2.36914 30.1396C2.80914 28.6196 3.23914 27.0996 3.67914 25.5696C4.46914 22.7996 6.23914 24.6296 7.17914 26.2896C8.20914 28.0896 8.61914 30.5596 9.03914 32.5596C9.98914 37.0596 10.2391 41.6796 10.4891 46.2596C10.7891 51.7896 11.4091 57.4296 11.3391 62.9796C11.4291 54.8896 11.5291 46.7996 11.6191 38.7096C11.6791 33.1896 11.8791 26.7896 15.0191 22.0596Z" fill="#B0B9C2"/>
<path d="M76.1 11.0802C83.95 11.5602 94.6 15.2802 100.3 7.36015C100.52 7.06015 100.73 6.70015 100.68 6.33015C100.61 5.77015 100.01 5.46015 99.48 5.24015C79.5 -3.08985 54.92 2.30015 33.81 0.80015C31.39 0.63015 28.94 0.46015 26.55 0.87015C24.17 1.28015 21.93 2.26015 19.72 3.23015C17.73 4.10015 15.4 5.45015 15.43 7.63015C15.44 8.46015 15.82 9.24015 16.33 9.89015C17.62 11.5302 19.7 12.3902 21.77 12.6402C25.55 13.0902 29.02 11.8402 32.65 11.3102C37.47 10.6102 42.58 10.7202 47.44 10.5902C56.99 10.3402 66.55 10.5002 76.08 11.0802H76.1Z" fill="#D3DCE5"/>
<path d="M24.17 111.709C20.33 111.599 16.54 111.049 13.25 109.069C10.39 107.349 8.99001 104.899 7.07001 102.359C4.90001 99.4895 3.28001 96.3295 2.52001 92.7895C0.69001 84.2395 1.01001 74.1295 2.00001 65.4395C2.27001 63.0395 2.64001 60.6095 2.26001 58.2295C2.18001 64.2495 2.38001 70.2795 2.85001 76.2895C3.27001 81.6195 3.28001 87.1195 4.88001 92.2395C6.30001 96.7795 8.74001 101.059 12.17 104.379C14.9 107.029 20.58 110.599 24.44 108.159C29.06 103.539 22.06 98.5395 18.83 95.3795C18.09 94.6595 17.33 93.8995 17.01 92.9295C19.42 95.5595 22.24 97.8195 25.33 99.5995C26.08 100.029 26.85 100.439 27.68 100.719C32.13 102.209 36.81 101.619 41.41 101.559C47.56 101.489 53.74 101.609 59.88 101.669C62.47 101.699 65.01 101.739 67.59 102.029C70.46 102.349 73.34 102.059 76.21 101.839C78.61 101.649 81.45 102.039 83.76 101.409C86.88 100.559 89.92 99.2895 92.57 97.4195C97.99 93.6095 101.02 87.6695 101.89 81.1895C101.3 85.5295 99.85 89.7495 97.69 93.5595C96.58 95.5195 95.28 97.3695 93.81 99.0695C92.47 100.619 89.88 102.679 91.04 105.079C92.04 107.139 95.83 108.319 97.93 108.029C99.07 107.869 100.12 107.349 101.12 106.779C103.38 105.479 105.46 103.839 107.24 101.929C102.15 108.619 94.99 111.039 87.04 110.559C76.68 109.929 66.04 110.709 55.66 110.809C48.01 110.879 40.38 111.699 32.72 111.659C29.96 111.649 27.05 111.809 24.17 111.719V111.709Z" fill="#4E6075"/>
<path d="M77.3291 102.06C77.3291 102.06 82.5891 103.11 88.9091 100.74C95.2291 98.3699 98.6491 94.9499 100.229 91.2699C101.809 87.5899 102.209 78.1699 102.209 78.1699C102.209 78.1699 100.509 89.9699 97.6091 92.5999C94.7091 95.2299 91.5491 101.54 77.3391 102.06H77.3291Z" fill="#B0B9C2"/>
<path d="M2.53003 93.7893C0.800034 87.1393 2.40003 81.9393 2.93003 75.4293C2.28003 83.4593 3.95003 92.5193 7.87003 99.5793C9.82003 103.079 12.58 106.369 16.44 107.789C21.32 109.589 27.37 108.429 24.79 101.889C25.6 102.859 25.84 104.159 26.05 105.399C26.75 109.559 28.94 110.099 32.7 109.769C39.2 109.189 45.65 108.779 52.15 108.629C54.24 108.579 56.33 108.689 58.42 108.799C66.42 109.229 74.3 109.279 82.3 109.319C84.55 109.319 87.82 110.379 90.03 109.469C94.14 107.779 89.71 104.509 91.95 101.689C91.73 103.149 91.54 104.779 92.39 105.989C93.36 107.369 95.26 107.649 96.94 107.809C101.48 108.229 108.19 96.2593 109.18 92.0593C110.23 87.5893 111.55 66.5293 111.55 66.5293L111.81 91.5293C111.81 91.5293 109.75 98.8693 107.23 101.909C104.71 104.949 99.71 110.209 92.6 110.999C85.49 111.789 73.39 110.999 73.39 110.999H46.02L27.6 112.319C27.6 112.319 16.55 112.579 12.34 108.369C7.90003 103.929 4.16003 99.9793 2.55003 93.7793L2.53003 93.7893Z" fill="#D5DEE6"/>
<path d="M32.0199 99.5998C29.0299 99.0498 26.1499 97.9598 23.4399 96.0198C19.8499 93.4398 16.6199 89.9198 15.5199 85.5898C14.3799 81.0898 14.1799 76.5098 14.1699 71.8598C14.5899 75.4098 15.0099 78.9998 16.1199 82.3998C17.2299 85.7998 19.0899 89.0498 21.9099 91.2498C26.8699 95.0998 33.2099 95.3598 39.1999 94.9998C49.7399 94.3598 60.2699 94.2598 70.8799 93.6598C77.8399 93.2598 85.4299 92.5998 90.4699 87.7898C95.0999 83.3798 96.3799 76.5698 96.9999 70.1998C97.5699 64.3398 97.7899 58.4398 97.6599 52.5498C98.4299 60.9698 98.6399 69.4498 98.2899 77.8998C98.0399 83.8998 97.2199 90.5098 92.7299 94.4998C88.0699 98.6398 80.3199 98.9298 74.4199 99.5398C67.3499 100.27 60.3799 98.8298 53.3899 99.0998C46.2999 99.3698 38.8799 100.89 32.0299 99.6198L32.0199 99.5998Z" fill="#95A0AD"/>
<path d="M72.2298 10.9693C59.6798 11.3493 47.0498 11.2893 34.5598 11.4893C30.7698 11.5493 26.6998 12.2193 23.6098 14.5593C20.9398 16.5793 17.3398 18.2693 15.4898 21.1893C14.6698 22.4793 14.0298 23.8193 13.5298 25.1793C11.8998 29.6093 11.7098 34.3693 11.6898 39.1193C11.6698 45.4493 11.3198 51.7593 12.1998 58.0993C12.1998 50.9193 13.0098 43.7693 14.4798 36.7693C15.7298 30.7993 18.2798 24.8293 23.4298 21.2193C29.7698 16.7693 38.7198 16.6493 46.1498 16.1293C55.1798 15.4993 64.2598 15.7293 73.2398 16.8093C76.8098 17.2393 80.4098 17.8193 83.6898 19.2793C91.0698 22.5693 93.6698 30.2393 95.8098 37.4493C96.9398 41.2493 98.1398 46.6093 97.7398 50.5793C98.1098 46.8993 98.0898 43.3493 97.9798 39.6893C97.8898 36.5493 98.2698 32.9693 100.57 30.5993C100.98 30.1793 101.47 29.7493 101.52 29.1693C101.55 28.8193 101.41 28.4793 101.28 28.1493C100.62 26.5693 99.9598 24.9893 99.2998 23.4093C98.9698 22.6093 98.6298 21.8093 98.1298 21.0993C96.6598 19.0293 93.9498 17.1493 92.0298 15.4793C89.5698 13.3393 86.1898 11.9293 83.0098 11.3493C79.5498 10.7193 75.9998 10.8593 72.4898 10.9693C72.4098 10.9693 72.3298 10.9693 72.2398 10.9693H72.2298Z" fill="#68788A"/>
<path d="M19.4192 12.7597C22.3792 11.6997 25.5692 11.2497 28.7692 9.92969C22.5392 12.4897 15.8892 15.3997 12.4292 21.1697C9.99915 25.2197 9.50915 30.1297 9.37915 34.8597C9.05915 31.8597 8.76915 28.8297 9.14915 25.8397C9.55915 22.6797 10.9692 19.4197 13.0392 16.9897C14.9492 14.7597 17.1092 13.5697 19.4192 12.7497V12.7597Z" fill="white"/>
<path d="M10.8192 12.7596C9.99924 13.1996 9.33923 13.9296 8.97923 14.7896C8.83923 15.1296 8.73924 15.4996 8.82924 15.8496C8.91924 16.1996 9.24923 16.5096 9.60923 16.4796C9.94923 16.4496 10.1892 16.1396 10.4092 15.8796C11.1192 15.0296 12.0392 14.3596 13.0692 13.9596C13.3892 13.8396 13.7292 13.7296 13.9692 13.4796C14.2092 13.2296 14.2792 12.7896 14.0192 12.5596C13.9192 12.4696 13.7792 12.4296 13.6392 12.3996C12.3792 12.1096 11.0092 12.3696 9.93923 13.0896L10.8092 12.7596H10.8192Z" fill="white"/>
<path d="M3.6298 16.6697C3.7298 16.3097 3.8998 15.8797 4.0798 15.3597C4.3098 14.8597 4.5398 14.2697 4.8998 13.6497C5.5898 12.3897 6.6098 10.9297 8.0998 9.47966C9.56981 8.01966 11.5298 6.59966 13.9198 5.42966C14.5198 5.12966 15.1398 4.86966 15.7798 4.61966C16.0998 4.48966 16.4598 4.37966 16.7998 4.24966L17.0598 4.15966L17.1698 4.11966L17.2998 4.07966L17.8298 3.91966C19.2398 3.49966 20.7498 3.15966 22.3398 2.91966C25.5298 2.41966 29.0398 2.30966 32.8098 2.39966C40.4098 2.64966 48.9798 2.93966 58.3298 3.24966C63.0098 3.39966 67.8898 3.54966 72.9398 3.70966C78.0398 3.83966 83.2298 3.61966 88.4298 4.10966C91.0198 4.34966 93.6098 4.76966 96.1198 5.50966C96.7298 5.71966 97.3698 5.89966 97.9698 6.11966C99.4498 6.65966 100.57 7.33966 101.87 8.22966C102.2 7.21966 102.53 6.21966 102.86 5.20966C101.86 4.06966 100.54 3.45966 99.1398 2.94966C98.4398 2.69966 97.7498 2.48966 97.0598 2.26966C94.2698 1.47966 91.4598 1.06966 88.7198 0.839664C83.2198 0.399664 77.9698 0.639664 72.9798 0.629664C67.9398 0.589664 63.0698 0.549664 58.3898 0.509664C49.0198 0.439664 40.4698 0.299664 32.8198 0.369664C28.9898 0.429664 25.3698 0.679664 22.0598 1.31966C18.7498 1.96966 15.8198 2.93966 13.3398 4.32966C8.4098 7.04966 5.6098 10.7097 4.3698 13.3997C4.0298 14.0597 3.8398 14.6997 3.6298 15.2197C3.4798 15.7697 3.3398 16.2197 3.2598 16.5997C3.1198 17.3497 3.0498 17.7397 3.0498 17.7397L3.3598 17.7897C3.3598 17.7897 3.4498 17.4197 3.6398 16.6897L3.6298 16.6697Z" fill="#828F9E"/>
<path d="M79.0697 102.619C79.0697 102.619 73.8897 102.649 64.8297 102.689C60.2997 102.689 54.7997 102.809 48.4897 102.889C45.3297 102.939 41.9797 102.979 38.4397 103.029C37.5597 103.039 36.6597 103.059 35.7497 103.069C35.2797 103.069 34.8697 103.099 34.3497 103.069C33.8897 103.049 33.4297 103.039 32.9697 103.019C32.0497 103.029 31.0697 102.829 30.0997 102.709C29.1297 102.559 28.1897 102.269 27.2197 102.039C23.4297 100.859 19.7197 98.7595 16.6797 95.7495C13.6697 92.7295 11.3297 88.8195 10.2597 84.4295C9.92967 83.3494 9.82967 82.2094 9.63967 81.0894C9.58967 80.5194 9.57967 79.9494 9.53967 79.3794C9.50967 78.7994 9.48967 78.2295 9.49967 77.6795C9.51967 75.4295 9.54967 73.1595 9.56967 70.8695C9.61967 66.2795 9.67967 61.5795 9.72967 56.8095C9.77967 52.0395 9.85967 47.1795 9.86967 42.2695C9.87967 39.8095 9.88967 37.3395 9.89967 34.8595C9.93967 32.3695 10.3497 29.8395 11.0897 27.4195C12.6897 22.6195 15.7697 18.1995 20.0097 15.1795C22.0997 13.6595 24.4097 12.3695 26.9197 11.5695C29.4097 10.7595 32.0297 10.3195 34.6697 10.2595C39.8497 10.2095 45.0297 10.1495 50.1797 10.0995C55.3397 10.0595 60.4797 10.0295 65.5697 9.98945C68.1197 9.97945 70.6597 9.96945 73.1797 9.94945C74.4397 9.94945 75.6997 9.94945 76.9597 9.93945H78.8397C79.5497 9.93945 80.1097 9.97945 80.7497 10.0095C85.9297 10.2995 90.8597 12.2595 94.7997 15.3095C96.7397 16.8695 98.5097 18.6295 99.8997 20.6395C101.27 22.6595 102.4 24.8095 103.14 27.0695C103.35 27.6295 103.46 28.2095 103.62 28.7795C103.78 29.3495 103.92 29.9195 103.99 30.5095C104.08 31.0895 104.17 31.6695 104.26 32.2495C104.29 32.8295 104.32 33.4095 104.35 33.9895C104.43 36.2895 104.37 38.4695 104.38 40.6695C104.39 49.4195 104.31 57.6895 104.23 65.3295C104.18 69.1495 104.12 72.8095 104.08 76.2895C104.06 77.1694 104.08 77.9995 104.02 78.8895C103.99 79.3094 103.96 79.7295 103.93 80.1495C103.9 80.5695 103.89 80.9795 103.8 81.3995C103.56 83.0795 103.16 84.6694 102.63 86.1495C101.57 89.1195 100.01 91.6895 98.2297 93.7595C96.4397 95.8295 94.4697 97.4194 92.5897 98.6694C88.7297 101.089 85.1697 101.979 82.7797 102.319C81.5797 102.539 80.6397 102.529 80.0097 102.569C79.3797 102.599 79.0597 102.609 79.0597 102.609L79.0697 102.619ZM79.0697 102.459C79.0697 102.459 79.3897 102.439 80.0197 102.409C80.6397 102.369 81.5697 102.359 82.7597 102.139C85.1297 101.779 88.6397 100.859 92.4197 98.4194C94.2697 97.1694 96.1797 95.5594 97.8697 93.4695C99.5597 91.3895 101 88.8395 101.94 85.9295C102.22 85.2195 102.33 84.4395 102.54 83.6795C102.65 83.2995 102.7 82.9094 102.75 82.5194C102.8 82.1294 102.86 81.7294 102.92 81.3394C102.99 80.9494 103 80.5294 103.01 80.1095C103.02 79.6895 103.04 79.2694 103.06 78.8494C103.09 78.0494 103.04 77.1595 103.04 76.2995C102.99 72.8195 102.94 69.1595 102.89 65.3395C102.81 57.6995 102.73 49.4295 102.74 40.6795C102.72 38.4995 102.77 36.2495 102.69 34.0595C102.66 33.5195 102.63 32.9795 102.6 32.4295C102.51 31.8895 102.43 31.3495 102.34 30.8095C102.28 30.2595 102.14 29.7295 101.99 29.1995C101.83 28.6695 101.74 28.1195 101.54 27.5995C100.84 25.4895 99.7697 23.4895 98.4997 21.6095C97.1897 19.7495 95.5697 18.0795 93.7697 16.6095C90.1197 13.7295 85.4997 11.8495 80.6897 11.5495C80.0797 11.5195 79.3997 11.4695 78.8597 11.4595H76.9797C75.7197 11.4495 74.4597 11.4395 73.1997 11.4395C70.6697 11.4295 68.1397 11.4195 65.5897 11.3995C60.4897 11.3595 55.3597 11.3295 50.1997 11.2895C45.0397 11.2395 39.8597 11.1795 34.6897 11.1295C32.1497 11.1395 29.6097 11.5195 27.1797 12.2595C24.7397 12.9895 22.4697 14.1995 20.3997 15.6495C16.2497 18.5695 13.1997 22.8595 11.5997 27.5595C10.8397 29.9295 10.4997 32.3795 10.4697 34.8495C10.4797 37.3295 10.4897 39.7995 10.4997 42.2595C10.4997 47.1695 10.5797 52.0295 10.6397 56.7995C10.6897 61.5695 10.7497 66.2695 10.7997 70.8595C10.8197 73.1595 10.8497 75.4295 10.8697 77.6694C10.8697 78.2394 10.8897 78.7794 10.9197 79.3195C10.9597 79.8595 10.9697 80.3995 11.0197 80.9395C11.2097 81.9995 11.2997 83.0695 11.6297 84.0894C12.1097 86.1594 12.9997 88.0895 14.0097 89.8995C14.2797 90.3395 14.5597 90.7794 14.8297 91.2094C15.0897 91.6495 15.4397 92.0294 15.7397 92.4494C16.3297 93.2794 17.0497 94.0095 17.7197 94.7595C20.5497 97.6295 24.0297 99.6694 27.6097 100.839C28.5197 101.059 29.4197 101.359 30.3297 101.509C31.2397 101.629 32.0997 101.859 33.0497 101.879C33.5097 101.909 33.9697 101.939 34.4297 101.969C34.8297 101.999 35.3297 101.989 35.7697 101.999C36.6797 102.009 37.5697 102.029 38.4597 102.039C41.9997 102.089 45.3597 102.139 48.5097 102.179C54.8197 102.249 60.3197 102.379 64.8497 102.379C73.9097 102.429 79.0897 102.449 79.0897 102.449L79.0697 102.459Z" fill="#CCD1D7"/>
<path d="M113.42 21.9797C112.93 18.9897 112.15 15.9997 110.85 13.2297C110.2 11.8497 109.44 10.5097 108.56 9.25969L108.24 8.78969L107.88 8.32969C107.6 7.97969 107.33 7.67969 107.03 7.38969C106.44 6.79969 105.77 6.27969 105.1 5.84969C104.43 5.41969 103.77 5.05969 103.14 4.72969L102.67 4.47969L102.14 4.22969L102.04 4.17969C101.92 5.32969 101.66 6.44969 101.21 7.52969L101.57 7.71969C102.18 8.03969 102.76 8.34969 103.27 8.67969C103.79 9.00969 104.24 9.36969 104.65 9.77969C104.85 9.97969 105.06 10.2097 105.23 10.4097L105.53 10.7897L105.8 11.1997C106.56 12.2797 107.22 13.4297 107.8 14.6497C108.93 17.0897 109.71 19.7497 110.19 22.5197C111.16 28.0797 111.03 33.9697 110.88 39.9897C110.8 43.0197 110.79 46.0497 110.75 49.0897C110.72 52.1297 110.7 55.1897 110.67 58.2697C110.64 64.4097 110.6 70.6097 110.57 76.8197C110.57 79.9297 110.57 83.0397 110.57 86.1597C110.57 89.2497 110.51 92.3297 109.7 95.1897C108.89 98.0397 107.19 100.63 105.23 102.95C103.26 105.25 100.91 107.33 98.3096 108.75C95.6396 110.18 92.5596 110.54 89.5196 110.7C86.4596 110.81 83.3896 110.63 80.3196 110.47C78.7896 110.4 77.2296 110.32 75.6996 110.32C74.1696 110.32 72.6396 110.33 71.1196 110.34C68.0796 110.36 65.0496 110.37 62.0396 110.36C56.0196 110.36 50.0696 110.29 44.2196 110.24C38.3096 110.05 32.5096 110.9 27.0196 110.82C24.2796 110.77 21.5596 110.51 19.1196 109.77L18.2296 109.5L17.2796 109.13L16.7996 108.94C16.7996 108.94 16.7496 108.92 16.7296 108.91L16.6296 108.86L16.4096 108.76C16.1196 108.62 15.8296 108.5 15.5496 108.34C14.4096 107.76 13.3296 107.07 12.3296 106.31C10.3296 104.78 8.56958 102.96 7.18958 100.93C6.84958 100.42 6.51958 99.9097 6.22958 99.3797C5.90958 98.8397 5.67958 98.3697 5.40958 97.7797C5.28958 97.4997 5.11958 97.1597 5.03958 96.9397L4.70958 96.0897C4.47958 95.5297 4.29958 94.9597 4.11958 94.3797C2.67958 89.7797 2.59958 84.9997 2.80958 80.3897C2.92958 78.0497 3.03958 75.7697 3.15958 73.5297C3.26958 71.2597 3.26958 69.0497 3.26958 66.9197C3.25958 62.6497 3.23958 58.6097 3.22958 54.7997C3.19958 50.9997 3.16958 47.4397 3.14958 44.1497C3.10958 40.8597 3.06958 37.8397 3.03958 35.0997C2.93958 29.6397 2.86958 25.3497 2.91958 22.4297C2.94958 19.5097 3.04958 17.9497 3.04958 17.9497L2.73958 17.9197C2.73958 17.9197 2.51958 19.4697 2.28958 22.3897C2.05958 25.3197 1.91958 29.6197 1.71958 35.0697C1.62958 37.7997 1.52958 40.8197 1.42958 44.1097C1.33958 47.3997 1.23958 50.9597 1.13958 54.7597C1.04958 58.5597 0.959583 62.6097 0.859583 66.8697C0.819583 69.0097 0.769583 71.1697 0.629583 73.3697C0.489583 75.5897 0.289583 77.8697 0.159583 80.2297C-0.100417 84.9297 -0.0904167 90.0797 1.44958 95.1697C1.63958 95.7997 1.82958 96.4397 2.07958 97.0597L2.43958 97.9997C2.58958 98.3797 2.70958 98.6097 2.83958 98.9197C3.10958 99.4897 3.44958 100.18 3.78958 100.75C4.11958 101.35 4.49958 101.93 4.88958 102.5C6.45958 104.77 8.41958 106.82 10.6996 108.5C11.8396 109.34 13.0696 110.08 14.3596 110.71C14.6796 110.88 15.0096 111.01 15.3396 111.16L15.5896 111.27L15.7096 111.33L15.8796 111.4L16.3596 111.58L17.3296 111.93L18.4196 112.24C21.2796 113.02 24.1796 113.15 27.0596 113.11C32.8396 112.98 38.4596 111.93 44.2696 111.91C50.1196 111.75 56.0696 111.56 62.0896 111.46C65.0996 111.39 68.1296 111.34 71.1696 111.31C72.6896 111.29 74.2096 111.27 75.7396 111.25C77.2696 111.23 78.7696 111.32 80.3096 111.4C83.3696 111.57 86.4696 111.77 89.5896 111.69C91.1496 111.64 92.7296 111.52 94.2896 111.24C95.8396 110.97 97.4396 110.5 98.8396 109.78C101.75 108.3 104.19 106.23 106.34 103.87C107.41 102.69 108.4 101.42 109.27 100.06C110.13 98.7097 110.89 97.2097 111.37 95.6597C112.38 92.5097 112.52 89.2797 112.64 86.1597C112.74 83.0397 112.85 79.9297 112.95 76.8197C113.12 70.6097 113.3 64.4197 113.47 58.2697C113.65 52.1397 113.73 46.0197 113.94 40.0297C114.15 34.0297 114.39 27.9497 113.43 21.9397L113.42 21.9797Z" fill="#384758"/>
<path d="M78.4196 102.039C78.4196 102.039 73.3896 102.069 64.5996 102.109C60.1996 102.109 54.8596 102.229 48.7296 102.299C45.6696 102.339 42.4096 102.389 38.9696 102.439C38.1096 102.449 37.2396 102.469 36.3596 102.479C35.9096 102.479 35.4996 102.509 34.9996 102.479C34.5496 102.459 34.1096 102.449 33.6596 102.429C32.7696 102.439 31.8096 102.239 30.8696 102.119C29.9196 101.979 29.0196 101.679 28.0696 101.459C24.3896 100.289 20.7896 98.2193 17.8396 95.2493C14.9196 92.2693 12.6496 88.3993 11.6096 84.0693C11.2896 82.9993 11.1896 81.8793 11.0096 80.7693C10.9596 80.2093 10.9496 79.6493 10.9196 79.0793C10.8896 78.5093 10.8696 77.9493 10.8796 77.3993C10.8996 75.1793 10.9296 72.9393 10.9496 70.6693C10.9996 66.1293 11.0496 61.4993 11.1096 56.7893C11.1596 52.0793 11.2296 47.2893 11.2396 42.4393C11.2496 40.0093 11.2596 37.5693 11.2696 35.1193C11.3096 32.6593 11.6996 30.1593 12.4296 27.7693C13.9796 23.0293 16.9796 18.6693 21.0896 15.6893C23.1196 14.1893 25.3696 12.9193 27.7996 12.1293C30.2196 11.3293 32.7596 10.8993 35.3196 10.8393C40.3496 10.7893 45.3696 10.7293 50.3796 10.6793C55.3896 10.6493 60.3796 10.6093 65.3196 10.5793C67.7896 10.5693 70.2596 10.5593 72.7096 10.5393C73.9396 10.5393 75.1596 10.5393 76.3796 10.5293H78.2096C78.8896 10.5293 79.4496 10.5693 80.0696 10.5993C85.0996 10.8793 89.8896 12.8193 93.7096 15.8393C95.5996 17.3793 97.3096 19.1193 98.6596 21.0993C99.9896 23.0893 101.09 25.2093 101.81 27.4493C102.02 27.9993 102.12 28.5793 102.28 29.1393C102.43 29.6993 102.58 30.2693 102.64 30.8493C102.73 31.4193 102.81 31.9993 102.9 32.5693C102.93 33.1493 102.96 33.7193 102.99 34.2893C103.06 36.5593 103 38.7093 103.02 40.8793C103.03 49.5193 102.95 57.6893 102.87 65.2293C102.82 68.9993 102.77 72.6093 102.72 76.0493C102.7 76.9193 102.72 77.7293 102.66 78.6193C102.63 79.0393 102.6 79.4493 102.58 79.8593C102.55 80.2693 102.54 80.6793 102.45 81.0893C102.21 82.7493 101.83 84.3093 101.32 85.7793C100.29 88.7093 98.7796 91.2493 97.0496 93.2893C95.3096 95.3293 93.3996 96.8993 91.5696 98.1393C87.8196 100.529 84.3696 101.409 82.0396 101.739C80.8696 101.949 79.9596 101.949 79.3496 101.979C78.7396 102.009 78.4296 102.019 78.4296 102.019L78.4196 102.039ZM78.4196 101.879C78.4196 101.879 78.7296 101.859 79.3396 101.829C79.9496 101.789 80.8496 101.779 81.9996 101.559C84.2996 101.209 87.7096 100.289 91.3796 97.8893C93.1796 96.6593 95.0296 95.0593 96.6696 93.0093C98.3096 90.9593 99.7096 88.4393 100.63 85.5693C100.9 84.8593 101.01 84.0993 101.22 83.3493C101.33 82.9693 101.38 82.5893 101.43 82.1993C101.48 81.8093 101.54 81.4193 101.59 81.0293C101.66 80.6393 101.67 80.2293 101.68 79.8193C101.69 79.4093 101.71 78.9893 101.72 78.5693C101.75 77.7793 101.7 76.8993 101.7 76.0493C101.65 72.6093 101.6 68.9993 101.55 65.2293C101.47 57.6893 101.39 49.5193 101.4 40.8793C101.38 38.7293 101.43 36.4993 101.35 34.3393C101.32 33.8093 101.29 33.2693 101.27 32.7293C101.19 32.1993 101.1 31.6593 101.02 31.1293C100.96 30.5893 100.82 30.0693 100.68 29.5393C100.53 29.0193 100.44 28.4793 100.24 27.9693C99.5596 25.8793 98.5296 23.9093 97.2896 22.0593C96.0096 20.2193 94.4496 18.5693 92.6896 17.1293C89.1496 14.2893 84.6596 12.4293 79.9896 12.1293C79.3996 12.0993 78.7396 12.0493 78.2096 12.0393H76.3796C75.1596 12.0293 73.9396 12.0193 72.7096 12.0193C70.2596 12.0093 67.7896 11.9993 65.3196 11.9793C60.3696 11.9493 55.3796 11.9093 50.3796 11.8793C45.3696 11.8293 40.3496 11.7693 35.3196 11.7193C32.8496 11.7293 30.3896 12.0993 28.0196 12.8393C25.6496 13.5593 23.4396 14.7593 21.4396 16.1893C17.4096 19.0693 14.4496 23.3093 12.8996 27.9493C12.1596 30.2893 11.8296 32.7093 11.7996 35.1493C11.8096 37.5993 11.8196 40.0393 11.8296 42.4693C11.8296 47.3193 11.9096 52.1093 11.9596 56.8193C12.0096 61.5293 12.0596 66.1693 12.1196 70.6993C12.1396 72.9693 12.1696 75.2093 12.1896 77.4293C12.1896 77.9893 12.2096 78.5293 12.2396 79.0593C12.2696 79.5893 12.2896 80.1293 12.3396 80.6593C12.5296 81.7093 12.6096 82.7693 12.9296 83.7693C13.3996 85.8193 14.2596 87.7193 15.2396 89.4993C15.5096 89.9293 15.7696 90.3693 16.0396 90.7993C16.2896 91.2393 16.6296 91.6093 16.9296 92.0193C17.4996 92.8393 18.1996 93.5593 18.8496 94.2993C21.5996 97.1393 24.9696 99.1493 28.4496 100.299C29.3396 100.519 30.2096 100.809 31.0896 100.959C31.9696 101.079 32.8096 101.309 33.7296 101.319C34.1796 101.349 34.6296 101.379 35.0696 101.409C35.4596 101.439 35.9396 101.429 36.3696 101.439C37.2496 101.449 38.1196 101.469 38.9796 101.479C42.4196 101.529 45.6796 101.579 48.7396 101.619C54.8696 101.689 60.2096 101.809 64.6096 101.809C73.4096 101.849 78.4296 101.879 78.4296 101.879H78.4196Z" fill="#6D7D8F"/>
<path opacity="0.52" d="M93.7093 15.8394C92.3693 14.7894 90.9193 13.8794 89.3793 13.1094L86.7793 13.6694C88.9193 14.5294 90.9293 15.6994 92.6993 17.1194C94.4493 18.5694 96.0193 20.2194 97.2993 22.0494C98.5393 23.8994 99.5793 25.8794 100.249 27.9594C100.319 28.1494 100.369 28.3394 100.419 28.5294L101.569 26.7794C100.859 24.7894 99.8593 22.8894 98.6693 21.0994C97.3193 19.1194 95.5993 17.3794 93.7193 15.8394H93.7093Z" fill="#384758"/>
<path opacity="0.52" d="M28.4398 100.289C24.9598 99.1291 21.5798 97.1291 18.8398 94.2891C18.1898 93.5491 17.4898 92.8391 16.9198 92.0091C16.6298 91.5991 16.2898 91.2291 16.0298 90.7891C15.7698 90.3591 15.4998 89.9291 15.2298 89.4891C14.4298 88.0291 13.7198 86.4691 13.2198 84.8291L12.0098 85.5291C13.1698 89.2691 15.2398 92.6091 17.8398 95.2591C20.7898 98.2291 24.3898 100.299 28.0698 101.469C28.5798 101.589 29.0898 101.729 29.5898 101.859L30.5998 100.849C29.8798 100.689 29.1698 100.469 28.4398 100.289Z" fill="#384758"/>
<path d="M18.3094 38.8501C17.3194 39.1901 16.3594 39.5801 15.4294 40.0301C13.7594 40.8501 13.0294 42.7901 12.4494 44.5501C10.8994 40.9501 12.7394 36.5001 13.5494 32.8701C13.6594 32.3701 13.7994 31.8501 14.1494 31.4801C14.4994 31.1101 15.1094 30.9301 15.5294 31.2301C15.8094 31.4301 15.9194 31.7701 16.0494 32.0901C18.0094 36.9301 29.8494 34.5701 34.2894 34.5901C42.0294 34.6201 49.7594 34.6501 57.4994 34.6801C54.8294 36.3801 49.7094 35.1901 46.6394 35.2801C42.3894 35.3901 38.1394 35.6901 33.9094 36.1901C28.8194 36.8001 23.2294 37.1801 18.3094 38.8501Z" fill="#68788A"/>
<path d="M91.75 26.8497C91.81 28.8897 90.02 30.4897 88.21 31.4197C85.49 32.8097 82.42 33.3397 79.41 33.8597C75.86 34.4697 72.31 35.0797 68.75 35.6997L90.77 35.8297C92.49 35.8297 94.44 35.9497 95.54 37.2697C94.99 33.4297 93.62 29.6997 91.53 26.4297L91.75 26.8597V26.8497Z" fill="#68788A"/>
<path d="M96.8791 70.9492C97.0491 71.7892 95.9191 72.2192 95.0691 72.2992C91.5591 72.6492 88.0491 72.9692 84.5391 73.2892C80.2291 73.6792 75.9291 74.0692 71.6191 74.4692C77.7091 74.6092 83.8091 74.7592 89.8991 74.8992C90.8191 74.9192 91.7591 74.9492 92.6291 75.2192C94.2691 75.7292 95.5791 77.1592 95.9491 78.8392C96.2191 76.4092 96.4991 73.9692 96.7691 71.5392L96.8691 70.9592L96.8791 70.9492Z" fill="#95A0AD"/>
<g style="mix-blend-mode:color-dodge">
<path d="M17.4892 67.9497C20.3392 66.9297 22.9092 65.2997 25.5392 63.8097C34.1592 58.9197 43.5892 55.4697 53.3392 53.7297C65.6392 51.5297 78.5292 51.9897 90.2392 47.5997C100.379 43.7997 109.079 37.1197 110.709 25.8997C111.999 17.0197 108.369 7.45969 99.4592 4.22969C96.6692 3.21969 93.6492 3.04969 90.6892 2.89969C69.8392 1.88969 48.9492 1.61969 28.0792 2.10969C23.7492 2.20969 19.2792 2.36969 15.3392 4.17969C9.81917 6.70969 5.33917 11.6297 3.61917 17.4297C2.73917 20.3797 2.68917 23.5097 2.63917 26.5897C2.55917 31.5197 2.47917 36.4597 2.40917 41.3897C2.33917 45.7297 2.48917 50.0797 2.49917 54.4497C2.51917 63.3397 7.51917 71.5197 17.5092 67.9497H17.4892Z" fill="#1C3947"/>
</g>
<path opacity="0.61" d="M96.48 94.9393C97.76 93.9893 98.33 92.4093 99.03 91.0293C99.2 90.6893 99.42 90.3093 99.79 90.2293C100.27 90.1093 100.73 90.5993 100.78 91.0993C100.82 91.5993 100.58 92.0693 100.34 92.4993C99.2 94.5193 98.64 96.3793 96.11 96.8893C95.9 96.9293 95.67 96.9593 95.48 96.8593C95.13 96.6693 95.12 96.1493 95.35 95.8193C95.57 95.4893 95.94 95.3093 96.28 95.0893C96.35 95.0393 96.43 94.9893 96.5 94.9393H96.48Z" fill="white"/>
<path style="mix-blend-mode:color-dodge" d="M33.22 111.05C39.76 111.25 46.93 109.16 53.1 109.5C64.93 110.16 76.78 110.35 88.62 110.08C91.78 110.01 95.01 109.89 97.93 108.69C105.4 105.64 110.63 97.9197 110.05 89.8997C109.16 91.3596 108.07 92.7496 106.59 93.6096C105.11 94.4697 103.19 94.7097 101.7 93.8697C98.33 91.9797 99.19 87.7096 99.13 84.5996C98.91 73.0496 99.5 61.4896 98.85 49.8896C97.9 53.5396 97.99 57.3696 97.65 61.1297C96.81 70.5396 91.94 74.5197 82.72 75.1597C75.17 75.6897 67.44 77.0796 60.01 78.4296C55.14 79.3196 50.24 80.2096 45.55 81.8396C42.93 82.7596 34.88 85.2497 34.69 88.6897C34.55 91.1297 37.5 92.4197 39.9 92.8997C47.09 94.3196 54.47 94.7297 61.77 94.1197C56.02 96.5197 49.82 97.5596 43.68 98.5896C37.3 99.6596 30.3 100.62 24.72 97.3496C19.46 94.2696 16.83 88.2197 14.54 82.5696C15.19 88.8196 17.95 94.8196 22.25 99.3997C23.11 100.31 24.04 101.18 24.65 102.27C25.75 104.22 25.65 106.79 24.4 108.65C27.07 110.32 30.06 110.94 33.19 111.03L33.22 111.05Z" fill="url(#paint0_radial_97_22484)"/>
<path d="M93.1402 19.3503C92.3902 19.0403 91.6402 18.7203 90.8802 18.4503C89.9702 18.1403 89.0502 17.8803 88.1002 17.7003C87.2202 17.5303 86.3002 17.4103 85.3902 17.4803C85.3202 17.5403 85.2602 17.6103 85.2102 17.6903C85.1002 18.7403 85.3902 19.7803 85.6202 20.8003C85.8702 21.9303 86.2002 23.0403 86.4902 24.1603C86.7902 25.3203 87.0502 26.5003 87.1702 27.7003C87.2802 28.7703 87.3302 29.9103 87.1202 30.9703C87.0102 31.5303 86.8202 32.1403 86.4402 32.5803C86.3802 32.6503 86.3102 32.7203 86.2402 32.7803C83.7502 33.2603 81.9402 35.4403 80.4102 37.3403C78.4102 39.8303 76.7302 42.5003 75.1502 45.2803C73.7102 47.8203 72.2402 50.3403 70.4802 52.6803C68.6902 55.0603 66.6102 57.2003 64.2902 59.0703C61.6402 61.2003 58.7502 63.0603 55.6202 64.4203C52.4602 65.7803 49.1302 66.5403 45.7102 66.8403C42.4502 67.1303 39.1702 67.0403 35.9102 66.8203C33.2902 66.6403 30.6802 66.3203 28.0602 66.1303C27.4702 66.1103 26.8802 66.1003 26.3002 66.1103C25.7202 66.1203 25.1502 66.1803 24.5702 66.2303C24.0302 66.2803 23.5002 66.3303 22.9702 66.4003C22.3202 66.5403 21.6702 66.6903 21.0402 66.9003C20.7202 67.0103 20.4002 67.1303 20.0902 67.2603C19.7802 67.3803 19.4502 67.5003 19.1502 67.6503C18.8302 67.8003 18.5402 67.9803 18.2302 68.1603C18.1802 68.2003 18.1302 68.2403 18.0702 68.2803C17.6302 68.6403 17.1702 68.9903 16.6202 69.1703C16.1402 69.3303 15.6202 69.3103 15.1302 69.4403C14.9902 69.4803 14.8602 69.5403 14.7402 69.6103C14.6402 69.7203 14.5502 69.8403 14.4702 69.9703C14.0702 70.5903 13.7702 71.3003 13.5302 71.9903C13.5302 72.0103 13.5202 72.0303 13.5102 72.0503C13.5102 72.1003 13.4902 72.1503 13.4802 72.1903C13.4802 72.1703 13.4802 72.1603 13.4802 72.1403C13.3902 72.4403 13.3102 72.7403 13.2902 73.0503C13.2802 73.2603 13.2902 73.4703 13.3802 73.6603C13.4202 73.7203 13.4802 73.7803 13.5502 73.8403C13.7502 74.0103 13.9502 74.1603 14.1202 74.3603C14.3402 74.4903 14.5502 74.6403 14.7402 74.8003C15.2202 75.2103 15.6202 75.7303 16.0502 76.2003C16.5202 76.7203 16.9902 77.2503 17.4702 77.7703C19.1802 79.6503 20.9802 81.4203 22.9202 83.0603C26.2702 85.8703 29.9102 88.2403 34.0202 89.7903C37.8902 91.2503 42.0202 91.9803 46.1502 92.0403C50.7002 92.1103 55.2502 91.3203 59.6502 90.2003C64.5402 88.9503 69.3002 87.1703 73.8102 84.9103C78.0202 82.8003 82.1302 80.2803 85.6802 77.1703C89.0402 74.2203 91.9002 70.6703 94.0202 66.7303C95.8902 63.2603 97.1102 59.4803 98.0302 55.6603C98.9502 51.8403 99.5602 47.8403 99.1902 43.9103C98.8502 40.3303 97.5602 36.7803 94.7302 34.4303C94.3402 34.1103 93.9302 33.8103 93.5002 33.5403C92.7602 32.5803 92.5102 31.3203 92.3902 30.1203C92.2502 28.6703 92.2902 27.1903 92.3902 25.7303C92.4502 24.8803 92.5702 24.0303 92.7902 23.2103C93.0102 22.3903 93.3902 21.6303 93.6302 20.8103C93.7202 20.5003 93.8302 20.1303 93.7002 19.8203C93.6002 19.5703 93.3502 19.4503 93.1202 19.3503H93.1402Z" fill="#D5915A"/>
<path d="M13.9601 73.7496C13.9601 73.7496 13.9001 73.6696 13.8701 73.6396C13.9001 73.6296 13.9301 73.6196 13.9701 73.5996C13.9701 73.6496 13.9701 73.6996 13.9701 73.7496H13.9601Z" fill="#ABAC65"/>
<path d="M93.4297 20.0295C93.4297 20.0295 93.4097 20.0295 93.4097 20.0395C93.4097 20.0495 93.4197 20.0595 93.4297 20.0695C93.3697 20.0895 93.3097 20.0995 93.2497 20.1195C93.2497 20.1195 93.2397 20.1195 93.2297 20.1195C92.9197 20.2695 92.5897 20.3995 92.2797 20.5495C92.6897 20.5095 93.0897 20.4195 93.4497 20.2695C93.4497 20.5695 93.2997 20.9195 93.2097 21.1395C92.9297 21.9095 92.6197 22.6395 92.4297 23.4395C92.2397 24.2395 92.1197 25.0495 92.0497 25.8595C91.9297 27.2795 91.8997 28.7395 92.0397 30.1595C92.1297 31.0895 92.2897 32.2095 92.7697 33.0895C92.6197 33.0095 92.4597 32.9195 92.3097 32.8495C92.2497 32.8195 92.1797 32.8295 92.1197 32.8595C92.7297 33.3495 93.3197 33.8695 93.8897 34.3995C94.8197 35.0795 95.6497 35.8995 96.3397 36.8495C97.3797 38.3095 98.0497 39.9995 98.4397 41.7495C99.2797 45.5395 98.9097 49.5495 98.1797 53.3295C97.4597 57.0395 96.4197 60.7895 94.8797 64.2395C93.0797 68.2695 90.5097 71.9495 87.3997 75.0795C84.1297 78.3695 80.2297 80.9895 76.1797 83.2295C71.8797 85.6095 67.3097 87.5295 62.5997 88.9495C58.1397 90.2995 53.4897 91.2995 48.8197 91.5395C44.7497 91.7495 40.6497 91.3195 36.7297 90.1795C32.7397 89.0195 29.0097 87.1195 25.6997 84.6295C23.6897 83.1195 21.7697 81.4895 19.9897 79.7195C19.0697 78.8095 18.2097 77.8495 17.3397 76.8995C16.5597 76.0495 15.8297 75.0395 14.9197 74.3295C14.9197 74.3295 14.8997 74.3095 14.8897 74.2995C14.8997 74.2495 14.8997 74.1995 14.8797 74.1695C14.8197 74.0895 14.7697 73.9995 14.6997 73.9195C14.6497 73.8695 14.6097 73.8095 14.5597 73.7595C14.4997 73.6795 14.4397 73.6095 14.4397 73.5195C14.4397 73.3995 14.4997 73.2795 14.5397 73.1695C14.5797 73.0795 14.6197 72.9895 14.6497 72.8995C14.7797 72.7095 14.8797 72.5095 14.9797 72.3095C15.1397 71.9795 15.2497 71.6395 15.3397 71.2895C15.4597 70.9595 15.5797 70.6295 15.6097 70.2795C15.6397 70.1495 15.4697 70.1395 15.4097 70.2695C15.2297 70.6895 15.0597 71.1195 14.8597 71.5295C14.6697 71.9195 14.4697 72.3195 14.2797 72.7195C14.2497 72.7695 14.2097 72.8195 14.1697 72.8595C14.0497 73.0095 13.8897 73.1695 13.6897 73.2395C13.6897 73.2295 13.6897 73.2095 13.6797 73.1995C13.7497 72.8895 13.8297 72.5795 13.8997 72.2595C14.0097 71.7095 14.1197 71.1595 14.3497 70.6495C14.5397 70.2195 14.8097 69.9595 15.2597 69.8395C15.3597 69.8095 15.4497 69.7895 15.5497 69.7695C15.5497 69.7895 15.5497 69.8195 15.5597 69.8395C15.5597 69.8495 15.5597 69.8695 15.5797 69.8895C15.5997 69.9195 15.6397 69.9295 15.6797 69.9195C15.7097 69.9195 15.7297 69.8995 15.7597 69.8695C15.7697 69.8695 15.7897 69.8595 15.7997 69.8395C15.7897 69.8395 15.7797 69.8595 15.7597 69.8695C15.7897 69.8495 15.8097 69.8295 15.8397 69.7995C15.8397 69.7995 15.8197 69.8195 15.8097 69.8295C15.8297 69.8095 15.8497 69.7995 15.8797 69.7895C15.8997 69.7895 15.9197 69.7695 15.9397 69.7595C15.9397 69.7595 15.9997 69.7495 16.0297 69.7395C16.0097 69.7395 15.9997 69.7395 15.9797 69.7495C16.0097 69.7495 16.0397 69.7395 16.0597 69.7195C16.0697 69.7195 16.0897 69.7095 16.0997 69.6995C16.1097 69.6995 16.1197 69.6895 16.1297 69.6795C16.1297 69.6795 16.1397 69.6695 16.1497 69.6595C16.3397 69.6195 16.5297 69.5795 16.7097 69.5095C17.2297 69.3195 17.6697 68.9795 18.1097 68.6595C18.6197 68.2795 19.1597 67.9595 19.7497 67.6995C20.8797 67.1995 22.0997 66.8995 23.3097 66.6895C24.3397 66.5095 25.3697 66.4495 26.3997 66.4395C29.2697 66.5595 32.1397 66.9495 34.9997 67.1695C38.1097 67.3995 41.2397 67.5295 44.3497 67.3495C47.6297 67.1595 50.8797 66.5995 53.9697 65.4795C57.0397 64.3595 59.9097 62.7495 62.5597 60.8395C64.9797 59.0895 67.2197 57.1095 69.1697 54.8495C70.9797 52.7595 72.5197 50.4595 73.9297 48.0795C75.5197 45.4095 76.9597 42.6495 78.7397 40.0895C79.6097 38.8395 80.5397 37.6395 81.5197 36.4795C82.4797 35.3395 83.5297 34.2095 84.8497 33.4895C85.1797 33.3095 85.5297 33.1595 85.8897 33.0395C86.2897 32.8695 86.7297 32.7495 87.1597 32.6995C87.1597 32.6795 87.1497 32.6595 87.1197 32.6595C86.9697 32.6595 86.8197 32.6795 86.6697 32.6895C86.9097 32.4095 87.0897 32.0795 87.2197 31.7295C87.5897 30.7195 87.6197 29.6195 87.5897 28.5595C87.5097 26.1395 86.8097 23.7895 86.1797 21.4695C86.0097 20.8295 85.8297 20.1995 85.6597 19.5595C85.5797 19.2495 85.4997 18.9495 85.4597 18.6495C85.5397 18.7995 85.6297 18.9295 85.7197 19.0395C86.0997 19.4595 86.5997 19.7095 87.1297 19.8995C87.6897 20.0895 88.2797 20.1895 88.8597 20.2995C89.2197 20.3595 89.5797 20.4295 89.9397 20.4795C89.9897 20.4795 90.0497 20.4795 90.0997 20.4795C90.5297 20.4895 90.9597 20.5595 91.3897 20.5395C91.4297 20.5395 91.4597 20.5295 91.4997 20.5195C91.2197 20.4995 90.9397 20.4595 90.6597 20.3995C90.1997 20.2995 89.7397 20.1795 89.2797 20.0395C88.9797 19.9795 88.6697 19.9195 88.3797 19.8395C87.7197 19.6695 87.0497 19.4595 86.4697 19.0895C86.1897 18.9095 85.9597 18.6895 85.7797 18.4095C85.6497 18.2095 85.6197 17.9795 85.5397 17.7695C87.1397 17.8595 88.6897 18.1395 90.2197 18.6295C90.9097 18.8495 91.5797 19.1195 92.2497 19.3995C92.6597 19.5095 93.0597 19.6395 93.4397 19.8295C93.5197 19.8695 93.5097 19.9795 93.4397 20.0195L93.4297 20.0295Z" fill="#FBE26C"/>
<g style="mix-blend-mode:screen">
<path d="M23.7202 67.1004C26.8902 66.8804 30.0502 67.3304 33.1802 67.7104C36.4002 68.1004 39.6302 68.2604 42.8802 68.3504C46.0402 68.4304 49.2402 68.3504 52.3102 67.5104C58.4102 65.8604 63.8202 62.1804 68.2602 57.7504C71.4402 54.5804 73.3302 50.5304 74.9202 46.4004C74.5902 46.9704 74.2702 47.5404 73.9302 48.1004C72.5202 50.4704 70.9702 52.7704 69.1702 54.8704C67.2202 57.1304 64.9702 59.1104 62.5602 60.8604C59.9202 62.7704 57.0402 64.3804 53.9702 65.5004C50.8702 66.6304 47.6302 67.1804 44.3502 67.3704C41.2302 67.5504 38.1102 67.4204 35.0002 67.1904C32.1402 66.9704 29.2702 66.5804 26.4002 66.4604C25.3602 66.4804 24.3302 66.5404 23.3102 66.7104C22.1002 66.9204 20.8802 67.2204 19.7502 67.7204C19.7502 67.7204 19.7502 67.7204 19.7402 67.7204C21.0602 67.4104 22.3902 67.1804 23.7502 67.0904L23.7202 67.1004Z" fill="#FBE26C"/>
</g>
<path d="M14.2602 72.7401C14.4402 72.3401 14.6402 71.9501 14.8402 71.5501C15.0402 71.1401 15.2102 70.7101 15.3902 70.2901C15.4402 70.1701 15.6102 70.1801 15.5902 70.3001C15.5602 70.6501 15.4502 70.9801 15.3202 71.3101C15.2302 71.6601 15.1202 72.0001 14.9602 72.3301C14.8602 72.5301 14.7502 72.7301 14.6302 72.9201C14.5902 73.0101 14.5502 73.1001 14.5202 73.1901C14.4802 73.3001 14.4202 73.4201 14.4202 73.5401C14.4202 73.6401 14.4802 73.7101 14.5402 73.7801C14.5902 73.8401 14.6302 73.8901 14.6802 73.9401C14.6802 73.9401 14.6902 73.9601 14.7002 73.9601C14.9002 73.7601 15.0902 73.5501 15.2602 73.3201C15.9802 72.3401 16.3802 71.1201 16.4902 69.9101C16.4902 69.8001 16.5102 69.6901 16.5102 69.5801C16.3902 69.6201 16.2602 69.6501 16.1302 69.6701C16.1302 69.6701 16.1202 69.6801 16.1102 69.6901C16.1002 69.6901 16.0902 69.7001 16.0802 69.7101C16.0702 69.7101 16.0602 69.7201 16.0402 69.7301C16.0102 69.7401 15.9902 69.7501 15.9602 69.7601C15.9802 69.7601 15.9902 69.7601 16.0102 69.7501C15.9802 69.7501 15.9502 69.7701 15.9202 69.7701C15.9002 69.7701 15.8802 69.7901 15.8602 69.8001C15.8402 69.8101 15.8102 69.8301 15.7902 69.8401C15.8002 69.8401 15.8102 69.8201 15.8202 69.8101C15.8202 69.8101 15.7702 69.8501 15.7402 69.8801C15.7502 69.8801 15.7602 69.8601 15.7802 69.8501C15.7702 69.8601 15.7502 69.8701 15.7402 69.8801C15.7202 69.9001 15.6902 69.9201 15.6602 69.9301C15.6202 69.9301 15.5802 69.9301 15.5602 69.9001C15.5602 69.8801 15.5402 69.8701 15.5402 69.8501C15.5402 69.8301 15.5302 69.8101 15.5302 69.7801C15.4302 69.8001 15.3302 69.8201 15.2402 69.8501C14.7902 69.9701 14.5202 70.2301 14.3302 70.6601C14.1002 71.1701 13.9902 71.7301 13.8802 72.2701C13.8202 72.5901 13.7302 72.9001 13.6602 73.2101C13.6602 73.2201 13.6602 73.2401 13.6702 73.2501C13.8602 73.1801 14.0202 73.0201 14.1502 72.8701C14.1902 72.8301 14.2202 72.7801 14.2602 72.7301V72.7401Z" fill="#231F20"/>
<path d="M93.4302 19.85C93.0502 19.66 92.6502 19.53 92.2402 19.42C91.5702 19.14 90.9002 18.87 90.2102 18.65C88.6802 18.16 87.1302 17.88 85.5302 17.79C85.6002 18 85.6402 18.23 85.7702 18.43C85.9502 18.71 86.1802 18.93 86.4602 19.11C87.0302 19.48 87.7102 19.69 88.3702 19.86C88.6702 19.94 88.9702 20 89.2702 20.06C89.7202 20.2 90.1802 20.32 90.6502 20.42C90.9302 20.48 91.2102 20.52 91.4902 20.54C91.4502 20.54 91.4202 20.55 91.3802 20.56C90.9502 20.57 90.5202 20.51 90.0902 20.5C90.0402 20.5 89.9802 20.5 89.9302 20.5C89.5702 20.45 89.2102 20.39 88.8502 20.32C88.2702 20.22 87.6802 20.12 87.1202 19.92C86.6002 19.74 86.0902 19.48 85.7102 19.06C85.6102 18.95 85.5202 18.82 85.4502 18.67C85.4902 18.97 85.5702 19.27 85.6502 19.58C85.8202 20.22 85.9902 20.85 86.1702 21.49C86.8002 23.81 87.5002 26.16 87.5802 28.58C87.6202 29.65 87.5802 30.74 87.2102 31.75C87.0802 32.1 86.9002 32.43 86.6602 32.71C86.8102 32.69 86.9602 32.68 87.1102 32.68C87.1402 32.68 87.1502 32.7 87.1502 32.72C86.7202 32.77 86.2802 32.89 85.8802 33.06C85.5202 33.18 85.1802 33.32 84.8402 33.51C84.0502 33.94 83.3702 34.51 82.7402 35.14C83.3902 34.82 84.0602 34.55 84.7602 34.35C86.6002 33.81 88.5402 33.73 90.4202 34.08C92.0402 34.39 93.5902 35.05 94.8902 36.07C95.9502 36.9 96.8302 37.93 97.5602 39.06C97.2302 38.3 96.8302 37.57 96.3402 36.89C95.6602 35.94 94.8302 35.12 93.8902 34.44C93.3202 33.9 92.7302 33.39 92.1202 32.9C92.1802 32.87 92.2502 32.85 92.3102 32.89C92.4702 32.97 92.6202 33.05 92.7702 33.13C92.2902 32.24 92.1302 31.13 92.0402 30.2C91.9102 28.78 91.9302 27.32 92.0502 25.9C92.1202 25.08 92.2402 24.27 92.4302 23.48C92.6202 22.68 92.9302 21.95 93.2102 21.18C93.2902 20.95 93.4502 20.6 93.4502 20.31C93.0902 20.47 92.6802 20.55 92.2802 20.59C92.5902 20.43 92.9102 20.31 93.2302 20.16C93.2302 20.16 93.2402 20.16 93.2502 20.16C93.3102 20.14 93.3702 20.13 93.4302 20.11C93.4302 20.1 93.4202 20.09 93.4102 20.08C93.4102 20.08 93.4302 20.08 93.4302 20.07C93.5102 20.03 93.5202 19.92 93.4302 19.88V19.85Z" fill="#BECA31"/>
<path d="M92.7104 33.6599C92.7104 33.6599 92.7804 33.6999 92.8104 33.7199C92.5904 33.5299 92.3704 33.3499 92.1504 33.1699C92.3304 33.3399 92.5204 33.4999 92.7104 33.6599Z" fill="#ABAC65"/>
<path d="M15.9601 69.7695C15.9601 69.7695 15.9301 69.7695 15.9201 69.7795C15.9001 69.7795 15.8901 69.7995 15.8701 69.7995C15.9001 69.7895 15.9301 69.7695 15.9601 69.7695Z" fill="#ABAC65"/>
<g style="mix-blend-mode:multiply">
<path d="M72.1303 60.1402C69.4303 62.9902 66.5103 65.6002 63.2103 67.7502C59.9203 69.8902 56.4003 71.6402 52.6103 72.6902C48.8503 73.7402 44.9303 74.1702 41.0403 74.0502C39.1403 73.9902 37.2303 73.8202 35.3603 73.4702C33.5803 73.1402 31.8303 72.6502 30.1003 72.1502C26.6903 71.1702 23.2203 70.0202 19.6403 69.9702C19.2003 69.9702 18.7603 69.9702 18.3203 70.0002C18.2703 70.0002 18.2303 70.1102 18.3003 70.1102C21.9303 70.1302 25.4703 71.2002 28.9203 72.2302C30.6703 72.7502 32.4303 73.2802 34.2203 73.6902C36.0503 74.1002 37.9103 74.3402 39.7803 74.4602C43.6703 74.7002 47.6103 74.3802 51.4003 73.4702C55.2403 72.5402 58.8203 70.9202 62.1703 68.8302C65.4803 66.7602 68.5303 64.2102 71.1903 61.3502C71.5303 60.9802 71.8703 60.6002 72.2003 60.2202C72.2603 60.1602 72.2003 60.0502 72.1303 60.1202V60.1402Z" fill="#FBE26C"/>
</g>
<g style="mix-blend-mode:multiply">
<path d="M87.2701 33.3496C86.0201 33.9996 84.9001 34.8296 83.9201 35.8396C82.9601 36.8296 82.1402 37.9496 81.4002 39.1096C80.5702 40.3996 79.8101 41.7396 79.1101 43.1096C78.3601 44.5696 77.8102 46.0896 77.2602 47.6296C76.9602 48.4596 76.6501 49.2796 76.2901 50.0896C75.9601 50.8296 75.6101 51.5696 75.4501 52.3696C75.4301 52.4396 75.5201 52.4096 75.5401 52.3696C75.7501 51.6496 76.0401 50.9596 76.3501 50.2896C76.6601 49.6096 76.9502 48.9296 77.2202 48.2296C77.8102 46.7196 78.4502 45.2196 79.1902 43.7796C79.8702 42.4496 80.6302 41.1496 81.4102 39.8696C82.1202 38.6996 82.8801 37.5496 83.7701 36.5096C84.7901 35.3196 85.9701 34.2596 87.3101 33.4496C87.3601 33.4196 87.3501 33.3196 87.2801 33.3596L87.2701 33.3496Z" fill="#FBE26C"/>
</g>
<g style="mix-blend-mode:multiply">
<path d="M77.04 47.8601C76.43 49.4301 75.92 51.0301 75.54 52.6701C76.04 52.0201 76.49 51.3301 76.9 50.6201C77.83 48.9701 78.56 47.2001 79.07 45.3701C79.37 44.3101 79.6 43.2201 79.73 42.1201C79.6 42.3701 79.47 42.6101 79.34 42.8601C78.5 44.4901 77.71 46.1501 77.05 47.8601H77.04Z" fill="#FBE26C"/>
</g>
<g style="mix-blend-mode:multiply">
<path d="M60.6799 69.2403C59.4099 69.9103 58.1099 70.5303 56.7899 71.0803C54.9399 71.8603 52.9799 72.4103 51.0199 72.8603C47.4899 73.6603 43.8699 74.0303 40.2699 74.2503C37.9299 74.3903 35.3299 74.4003 33.1699 73.3503C35.1099 74.7903 37.4899 75.5303 39.8899 75.8003C42.9699 76.1403 46.1199 75.7903 49.1399 75.1403C51.9799 74.5303 54.7699 73.6403 57.4499 72.5103C59.4099 71.6903 61.3099 70.6703 63.1299 69.5703C65.0599 68.4003 66.9199 67.0803 68.5899 65.5503C69.3899 64.8203 70.1799 64.0603 70.8599 63.2103C71.4699 62.4403 71.9899 61.6003 72.4399 60.7303C72.5999 60.4203 72.7399 60.1003 72.8899 59.7803C71.6299 61.3803 70.1299 62.8003 68.5599 64.0903C66.1299 66.0803 63.4499 67.7803 60.6799 69.2503V69.2403Z" fill="#FBE26C"/>
</g>
<g style="mix-blend-mode:multiply">
<path d="M93.4299 19.85C93.0499 19.66 92.6499 19.53 92.2399 19.42C91.5699 19.14 90.8999 18.87 90.2099 18.65C88.6799 18.16 87.1299 17.88 85.5299 17.79C85.5999 18 85.6399 18.23 85.7699 18.43C85.9499 18.71 86.1799 18.93 86.4599 19.11C87.0299 19.48 87.7099 19.69 88.3699 19.86C88.6699 19.94 88.9699 20 89.2699 20.06C89.7199 20.2 90.1799 20.32 90.6499 20.42C90.9299 20.48 91.2099 20.52 91.4899 20.54C91.4499 20.54 91.4199 20.55 91.3799 20.56C90.9499 20.57 90.5199 20.51 90.0899 20.5C90.0399 20.5 89.9799 20.5 89.9299 20.5C89.5699 20.45 89.2099 20.39 88.8499 20.32C88.5599 20.27 88.2799 20.22 87.9899 20.16C88.0199 20.17 88.0499 20.19 88.0799 20.2C88.5599 20.42 89.0899 20.53 89.5699 20.75C89.8899 20.89 90.1899 21.08 90.3599 21.39C90.5899 21.8 90.6299 22.29 90.6399 22.75C90.7499 25.98 90.5499 29.21 90.8099 32.44C90.8099 32.52 90.7399 32.56 90.6699 32.54C90.0699 32.36 89.4499 32.26 88.8199 32.25C88.2999 32.25 87.7899 32.31 87.2999 32.42C87.4799 32.44 87.6599 32.47 87.8299 32.52C88.8299 32.77 89.7299 33.3 90.4899 33.99C91.3299 34.77 91.9799 35.73 92.4799 36.76C93.0199 37.88 93.4199 39.07 93.6599 40.29C94.1299 42.78 93.9299 45.35 93.3899 47.81C92.8499 50.26 90.1699 57.51 89.5699 58.75C88.0499 61.92 85.8299 64.73 83.5099 67.35C78.5699 72.92 72.5599 77.63 65.8399 80.86C59.3199 84 51.9299 85.79 44.6799 84.99C37.3699 84.19 30.2999 81.15 24.3299 76.92C23.0299 76 21.7799 75.01 20.6699 73.86C19.7599 72.92 18.8299 71.76 18.6899 70.4C18.5899 69.45 18.9599 68.55 19.5499 67.82C19.0399 68.06 18.5599 68.35 18.0999 68.69C17.6599 69.01 17.2199 69.35 16.6999 69.54C16.5199 69.61 16.3299 69.65 16.1399 69.69C16.1399 69.69 16.1299 69.7 16.1199 69.71C16.1099 69.71 16.0999 69.72 16.0899 69.73C16.0799 69.73 16.0699 69.74 16.0499 69.75C16.0199 69.76 15.9999 69.77 15.9699 69.78C15.9899 69.78 15.9999 69.78 16.0199 69.77C15.9899 69.77 15.9599 69.79 15.9299 69.79C15.9099 69.79 15.8899 69.81 15.8699 69.82C15.8499 69.83 15.8199 69.85 15.7999 69.86C15.8099 69.86 15.8199 69.84 15.8299 69.83C15.8299 69.83 15.7799 69.87 15.7499 69.9C15.7599 69.9 15.7699 69.88 15.7899 69.87C15.7799 69.88 15.7599 69.89 15.7499 69.9C15.7299 69.92 15.6999 69.94 15.6699 69.95C15.6299 69.95 15.5899 69.95 15.5699 69.92C15.5699 69.9 15.5499 69.89 15.5499 69.87C15.5499 69.85 15.5399 69.83 15.5399 69.8C15.4399 69.82 15.3399 69.84 15.2499 69.87C14.7999 69.99 14.5299 70.25 14.3399 70.68C14.1099 71.19 13.9999 71.75 13.8899 72.29C13.8299 72.61 13.7399 72.92 13.6699 73.23C13.6699 73.24 13.6699 73.26 13.6799 73.27C13.8699 73.2 14.0299 73.04 14.1599 72.89C14.1999 72.85 14.2299 72.8 14.2699 72.75C14.4499 72.35 14.6499 71.96 14.8499 71.56C15.0499 71.15 15.2199 70.72 15.3999 70.3C15.4499 70.18 15.6199 70.19 15.5999 70.31C15.5699 70.66 15.4599 70.99 15.3299 71.32C15.2399 71.67 15.1299 72.01 14.9699 72.34C14.8699 72.54 14.7599 72.74 14.6399 72.93C14.5999 73.02 14.5599 73.11 14.5299 73.2C14.4899 73.31 14.4299 73.43 14.4299 73.55C14.4299 73.65 14.4899 73.72 14.5499 73.79C14.5999 73.85 14.6399 73.9 14.6899 73.95C14.7599 74.03 14.7999 74.11 14.8699 74.2C14.8999 74.23 14.8999 74.28 14.8799 74.33C14.8799 74.33 14.8999 74.35 14.9099 74.36C15.8199 75.08 16.5599 76.08 17.3299 76.93C18.1999 77.89 19.0699 78.84 19.9799 79.75C21.7599 81.52 23.6799 83.15 25.6899 84.66C29.0099 87.16 32.7399 89.05 36.7199 90.21C40.6399 91.35 44.7399 91.78 48.8099 91.57C53.4699 91.33 58.1299 90.33 62.5899 88.98C67.2999 87.55 71.8699 85.64 76.1699 83.26C80.2099 81.02 84.1199 78.4 87.3899 75.11C90.4999 71.98 93.0699 68.3 94.8699 64.27C96.4099 60.82 97.4599 57.06 98.1699 53.36C98.8999 49.58 99.2699 45.58 98.4299 41.78C98.0399 40.03 97.3799 38.34 96.3299 36.88C95.6499 35.93 94.8199 35.11 93.8799 34.43C93.3099 33.89 92.7199 33.38 92.1099 32.89C92.1699 32.86 92.2399 32.84 92.2999 32.88C92.4599 32.96 92.6099 33.04 92.7599 33.12C92.2799 32.23 92.1199 31.12 92.0299 30.19C91.8999 28.77 91.9199 27.31 92.0399 25.89C92.1099 25.07 92.2299 24.26 92.4199 23.47C92.6099 22.67 92.9199 21.94 93.1999 21.17C93.2799 20.94 93.4399 20.59 93.4399 20.3C93.0799 20.46 92.6699 20.54 92.2699 20.58C92.5799 20.42 92.8999 20.3 93.2199 20.15C93.2199 20.15 93.2299 20.15 93.2399 20.15C93.2999 20.13 93.3599 20.12 93.4199 20.1C93.4199 20.09 93.4099 20.08 93.3999 20.07C93.3999 20.07 93.4199 20.07 93.4199 20.06C93.4999 20.02 93.5099 19.91 93.4199 19.87L93.4299 19.85Z" fill="#FBE26C"/>
</g>
<g style="mix-blend-mode:multiply">
<path d="M93.8999 34.4199C94.7499 36.0799 95.3299 37.8799 95.7799 39.6799C96.2599 41.6199 96.4499 43.6299 96.4099 45.6299C96.3299 49.7399 95.3199 53.7999 93.8499 57.6299C92.3999 61.3899 90.4899 65.0399 88.1499 68.3299C85.6799 71.7999 82.6599 74.8699 79.2799 77.4699C77.9399 78.4999 76.5399 79.4499 75.0999 80.3299C70.6599 83.2799 65.7399 85.5999 60.5999 87.0299C55.8699 88.3399 50.8999 88.7999 46.0099 88.4599C41.2499 88.1199 36.5699 86.9999 32.1399 85.2299C29.8599 84.3199 27.6499 83.2499 25.5399 82.0099C23.2999 80.6899 21.1099 79.1699 19.3799 77.2099C18.6099 76.3499 17.9099 75.3699 17.4499 74.3099C17.0999 73.4999 16.9499 72.5999 16.9199 71.7199C16.8999 70.9399 16.9799 70.0699 17.2299 69.2799C17.0599 69.3799 16.8799 69.4699 16.6999 69.5399C16.5199 69.6099 16.3299 69.6499 16.1399 69.6899C16.1399 69.6899 16.1299 69.6999 16.1199 69.7099C16.1099 69.7099 16.0999 69.7199 16.0899 69.7299C16.0799 69.7299 16.0699 69.7399 16.0499 69.7499C16.0199 69.7599 15.9999 69.7699 15.9699 69.7799C15.9899 69.7799 15.9999 69.7799 16.0199 69.7699C15.9899 69.7699 15.9599 69.7899 15.9299 69.7899C15.9099 69.7899 15.8899 69.8099 15.8699 69.8199C15.8499 69.8299 15.8199 69.8499 15.7999 69.8599C15.8099 69.8599 15.8199 69.8399 15.8299 69.8299C15.8299 69.8299 15.7799 69.8699 15.7499 69.8999C15.7599 69.8999 15.7699 69.8799 15.7899 69.8699C15.7799 69.8799 15.7599 69.8899 15.7499 69.8999C15.7299 69.9199 15.6999 69.9399 15.6699 69.9499C15.6299 69.9499 15.5899 69.9499 15.5699 69.9199C15.5699 69.8999 15.5499 69.8899 15.5499 69.8699C15.5499 69.8499 15.5399 69.8299 15.5399 69.7999C15.4399 69.8199 15.3399 69.8399 15.2499 69.8699C14.7999 69.9899 14.5299 70.2499 14.3399 70.6799C14.1099 71.1899 13.9999 71.7499 13.8899 72.2899C13.8299 72.6099 13.7399 72.9199 13.6699 73.2299C13.6699 73.2399 13.6699 73.2599 13.6799 73.2699C13.8699 73.1999 14.0299 73.0399 14.1599 72.8899C14.1999 72.8499 14.2299 72.7999 14.2699 72.7499C14.4499 72.3499 14.6499 71.9599 14.8499 71.5599C15.0499 71.1499 15.2199 70.7199 15.3999 70.2999C15.4499 70.1799 15.6199 70.1899 15.5999 70.3099C15.5699 70.6599 15.4599 70.9899 15.3299 71.3199C15.2399 71.6699 15.1299 72.0099 14.9699 72.3399C14.8699 72.5399 14.7599 72.7399 14.6399 72.9299C14.5999 73.0199 14.5599 73.1099 14.5299 73.1999C14.4899 73.3099 14.4299 73.4299 14.4299 73.5499C14.4299 73.6499 14.4899 73.7199 14.5499 73.7899C14.5999 73.8499 14.6399 73.8999 14.6899 73.9499C14.7599 74.0299 14.7999 74.1099 14.8699 74.1999C14.8999 74.2299 14.8999 74.2799 14.8799 74.3299C14.8799 74.3299 14.8999 74.3499 14.9099 74.3599C15.8199 75.0799 16.5599 76.0799 17.3299 76.9299C18.1999 77.8899 19.0699 78.8399 19.9799 79.7499C21.7599 81.5199 23.6799 83.1499 25.6899 84.6599C29.0099 87.1599 32.7399 89.0499 36.7199 90.2099C40.6399 91.3499 44.7399 91.7799 48.8099 91.5699C53.4699 91.3299 58.1299 90.3299 62.5899 88.9799C67.2999 87.5499 71.8699 85.6399 76.1699 83.2599C80.2099 81.0199 84.1199 78.3999 87.3899 75.1099C90.4999 71.9799 93.0699 68.2999 94.8699 64.2699C96.4099 60.8199 97.4599 57.0599 98.1699 53.3599C98.8999 49.5799 99.2699 45.5799 98.4299 41.7799C98.0399 40.0299 97.3799 38.3399 96.3299 36.8799C95.6499 35.9299 94.8199 35.1099 93.8799 34.4299L93.8999 34.4199Z" fill="#FBE26C"/>
</g>
<g style="mix-blend-mode:screen">
<path d="M86.4603 19.11C86.8503 19.36 87.2803 19.54 87.7303 19.68C87.8703 19.68 88.0103 19.7 88.1403 19.73C88.3303 19.77 88.5103 19.81 88.7003 19.83C88.4603 19.68 88.2303 19.52 88.0003 19.36C87.7303 19.17 87.4703 18.96 87.2503 18.72C87.0903 18.55 86.9303 18.34 86.9103 18.1C86.9103 18.04 86.9103 17.98 86.9303 17.92C86.4703 17.86 86.0003 17.82 85.5303 17.79C85.6003 18 85.6403 18.23 85.7703 18.43C85.9503 18.71 86.1803 18.93 86.4603 19.11Z" fill="#BECA31"/>
</g>
<g style="mix-blend-mode:screen">
<path d="M87.7 29.8299C87.83 29.4099 87.94 28.9799 87.99 28.5499C88.07 27.7999 88 27.0199 87.92 26.2699C87.83 25.5199 87.71 24.7799 87.62 24.0299C87.56 23.5399 87.42 23.0499 87.31 22.5699C87.18 22.0299 87.04 21.4899 86.99 20.9299C86.96 20.5999 86.95 20.1899 87.17 19.9299C87.16 19.9299 87.14 19.9299 87.13 19.9199C86.61 19.7399 86.1 19.4799 85.72 19.0599C85.62 18.9499 85.53 18.8199 85.46 18.6699C85.5 18.9699 85.58 19.2699 85.66 19.5799C85.83 20.2199 86 20.8499 86.18 21.4899C86.81 23.8099 87.51 26.1599 87.59 28.5799C87.61 29.1399 87.61 29.7099 87.55 30.2599C87.61 30.1199 87.66 29.9699 87.7 29.8299Z" fill="#BECA31"/>
</g>
<g style="mix-blend-mode:screen">
<path d="M86.3605 41.8202C86.0505 41.3402 85.5805 41.0002 85.0005 40.8602C83.2905 40.4402 81.8705 41.7502 80.9705 43.0502C79.8405 44.6902 79.0905 46.6002 78.8105 48.5702C78.6705 49.5902 78.7505 50.8402 79.6405 51.3702C81.2505 52.3402 83.1805 50.6702 84.2305 49.5802C85.6705 48.0802 86.5405 46.0802 86.7305 44.0102C86.7805 43.4802 86.7805 42.9302 86.6305 42.4202C86.5705 42.2002 86.4805 42.0002 86.3605 41.8202Z" fill="#FBE26C"/>
</g>
<g style="mix-blend-mode:screen">
<path d="M79.8599 54.5998C79.7099 54.3598 79.4699 54.1898 79.1799 54.1198C78.3299 53.9098 77.6199 54.5698 77.1699 55.2198C76.5999 56.0398 76.2299 56.9898 76.0899 57.9798C76.0199 58.4898 76.0599 59.1098 76.4999 59.3798C77.2999 59.8698 78.2699 59.0298 78.7899 58.4798C79.5099 57.7298 79.9499 56.7298 80.0399 55.6898C80.0599 55.4198 80.0599 55.1498 79.9899 54.8998C79.9599 54.7898 79.9099 54.6898 79.8499 54.5998H79.8599Z" fill="#FBE26C"/>
</g>
<defs>
<radialGradient id="paint0_radial_97_22484" cx="0" cy="0" r="1" gradientUnits="userSpaceOnUse" gradientTransform="translate(82.06 124.81) scale(39.57)">
<stop stop-color="white"/>
<stop offset="0.08" stop-color="#E5E4E4"/>
<stop offset="0.26" stop-color="#AAA9A9"/>
<stop offset="0.44" stop-color="#7A7778"/>
<stop offset="0.61" stop-color="#545152"/>
<stop offset="0.76" stop-color="#393536"/>
<stop offset="0.9" stop-color="#282425"/>
<stop offset="1" stop-color="#231F20"/>
</radialGradient>
</defs>
</svg>
