<svg aria-hidden="true" style="position: absolute; width: 0; height: 0; overflow: hidden;" version="1.1" xmlns="http://www.w3.org/2000/svg" xmlns:xlink="http://www.w3.org/1999/xlink">
<defs>
<symbol id="icon-arrow-left-light" viewBox="0 0 32 32">
<path d="M5.333 16l-0.472-0.472-0.471 0.472 0.471 0.472 0.472-0.472zM25.333 16.667c0.177 0 0.346-0.070 0.471-0.195s0.195-0.295 0.195-0.471c0-0.177-0.070-0.346-0.195-0.471s-0.295-0.195-0.471-0.195v1.333zM12.861 7.528l-8 8 0.944 0.944 8-8-0.944-0.944zM4.861 16.472l8 8 0.944-0.944-8-8-0.944 0.944zM5.333 16.667h20v-1.333h-20v1.333z"></path>
</symbol>
<symbol id="icon-burger-menu" viewBox="0 0 32 32">
<path stroke-linejoin="miter" stroke-linecap="round" stroke-miterlimit="4" stroke-width="0.9412" d="M8.471 8.471h15.059"></path>
<path stroke-linejoin="miter" stroke-linecap="round" stroke-miterlimit="4" stroke-width="0.9412" d="M8.471 16h15.059"></path>
<path stroke-linejoin="miter" stroke-linecap="round" stroke-miterlimit="4" stroke-width="0.9412" d="M8.471 23.529h15.059"></path>
</symbol>
<symbol id="icon-checkbox1" viewBox="0 0 32 32">
<path fill="#003959" style="fill: var(--color21, #003959)" opacity="0.009" d="M2.885 5.233h21.117c1.496 0 2.711 1.215 2.711 2.711v21.117c0 1.496-1.215 2.711-2.711 2.711h-21.117c-1.496 0-2.711-1.215-2.711-2.711v-21.116c0-1.496 1.215-2.711 2.711-2.711v-0.001z"></path>
<path fill="#003959" style="fill: var(--color21, #003959)" opacity="0.021" d="M3.058 5.060h21.117c1.496 0 2.711 1.215 2.711 2.711v21.117c0 1.496-1.215 2.711-2.711 2.711h-21.117c-1.496 0-2.711-1.215-2.711-2.711v-21.117c0-1.496 1.215-2.711 2.711-2.711z"></path>
<path fill="#003959" style="fill: var(--color21, #003959)" opacity="0.03" d="M3.232 4.886h21.117c1.496 0 2.711 1.215 2.711 2.711v21.117c0 1.496-1.215 2.711-2.711 2.711h-21.117c-1.496 0-2.711-1.215-2.711-2.711v-21.117c0-1.496 1.215-2.711 2.711-2.711z"></path>
<path fill="#003959" style="fill: var(--color21, #003959)" opacity="0.042" d="M3.405 4.713h21.117c1.496 0 2.711 1.215 2.711 2.711v21.117c0 1.496-1.215 2.711-2.711 2.711h-21.117c-1.496 0-2.711-1.215-2.711-2.711v-21.117c0-1.496 1.215-2.711 2.711-2.711z"></path>
<path fill="#003959" style="fill: var(--color21, #003959)" opacity="0.051000000000000004" d="M3.579 4.539h21.117c1.496 0 2.711 1.215 2.711 2.711v21.117c0 1.496-1.215 2.711-2.711 2.711h-21.117c-1.496 0-2.711-1.215-2.711-2.711v-21.117c0-1.496 1.215-2.711 2.711-2.711z"></path>
<path fill="#003959" style="fill: var(--color21, #003959)" opacity="0.063" d="M3.752 4.366h21.117c1.496 0 2.711 1.215 2.711 2.711v21.117c0 1.496-1.215 2.711-2.711 2.711h-21.116c-1.496 0-2.711-1.215-2.711-2.711v-21.117c0-1.496 1.215-2.711 2.711-2.711h-0.001z"></path>
<path fill="#003959" style="fill: var(--color21, #003959)" opacity="0.072" d="M3.926 4.192h21.117c1.496 0 2.711 1.215 2.711 2.711v21.117c0 1.496-1.215 2.711-2.711 2.711h-21.117c-1.496 0-2.711-1.215-2.711-2.711v-21.117c0-1.496 1.215-2.711 2.711-2.711z"></path>
<path fill="#003959" style="fill: var(--color21, #003959)" opacity="0.084" d="M4.101 4.018h21.117c1.496 0 2.711 1.215 2.711 2.711v21.117c0 1.496-1.215 2.711-2.711 2.711h-21.117c-1.496 0-2.711-1.215-2.711-2.711v-21.117c0-1.496 1.215-2.711 2.711-2.711z"></path>
<path fill="#003959" style="fill: var(--color21, #003959)" opacity="0.093" d="M4.273 3.845h21.117c1.496 0 2.711 1.215 2.711 2.711v21.117c0 1.496-1.215 2.711-2.711 2.711h-21.117c-1.496 0-2.711-1.215-2.711-2.711v-21.117c0-1.496 1.215-2.711 2.711-2.711z"></path>
<path fill="#003959" style="fill: var(--color21, #003959)" opacity="0.10200000000000001" d="M4.448 3.671h21.117c1.496 0 2.711 1.215 2.711 2.711v21.117c0 1.496-1.215 2.711-2.711 2.711h-21.117c-1.496 0-2.711-1.215-2.711-2.711v-21.117c0-1.496 1.215-2.711 2.711-2.711z"></path>
<path fill="#003959" style="fill: var(--color21, #003959)" opacity="0.11399999999999999" d="M4.62 3.498h21.117c1.496 0 2.711 1.215 2.711 2.711v21.117c0 1.496-1.215 2.711-2.711 2.711h-21.116c-1.496 0-2.711-1.215-2.711-2.711v-21.117c0-1.496 1.215-2.711 2.711-2.711h-0.001z"></path>
<path fill="#003959" style="fill: var(--color21, #003959)" opacity="0.12299999999999998" d="M4.795 3.324h21.117c1.496 0 2.711 1.215 2.711 2.711v21.117c0 1.496-1.215 2.711-2.711 2.711h-21.117c-1.496 0-2.711-1.215-2.711-2.711v-21.117c0-1.496 1.215-2.711 2.711-2.711z"></path>
<path fill="#003959" style="fill: var(--color21, #003959)" opacity="0.135" d="M4.969 3.151h21.117c1.496 0 2.711 1.215 2.711 2.711v21.117c0 1.496-1.215 2.711-2.711 2.711h-21.117c-1.496 0-2.711-1.215-2.711-2.711v-21.117c0-1.496 1.215-2.711 2.711-2.711z"></path>
<path fill="#003959" style="fill: var(--color21, #003959)" opacity="0.144" d="M5.142 2.977h21.117c1.496 0 2.711 1.215 2.711 2.711v21.117c0 1.496-1.215 2.711-2.711 2.711h-21.117c-1.496 0-2.711-1.215-2.711-2.711v-21.117c0-1.496 1.215-2.711 2.711-2.711z"></path>
<path fill="#003959" style="fill: var(--color21, #003959)" opacity="0.156" d="M5.316 2.803h21.117c1.496 0 2.711 1.215 2.711 2.711v21.117c0 1.496-1.215 2.711-2.711 2.711h-21.117c-1.496 0-2.711-1.215-2.711-2.711v-21.117c0-1.496 1.215-2.711 2.711-2.711z"></path>
<path fill="#003959" style="fill: var(--color21, #003959)" opacity="0.165" d="M5.489 2.63h21.117c1.496 0 2.711 1.215 2.711 2.711v21.117c0 1.496-1.215 2.711-2.711 2.711h-21.117c-1.496 0-2.711-1.215-2.711-2.711v-21.117c0-1.496 1.215-2.711 2.711-2.711z"></path>
<path fill="#003959" style="fill: var(--color21, #003959)" opacity="0.177" d="M5.663 2.456h21.117c1.496 0 2.711 1.215 2.711 2.711v21.117c0 1.496-1.215 2.711-2.711 2.711h-21.117c-1.496 0-2.711-1.215-2.711-2.711v-21.117c0-1.496 1.215-2.711 2.711-2.711z"></path>
<path fill="#003959" style="fill: var(--color21, #003959)" opacity="0.186" d="M5.836 2.283h21.117c1.496 0 2.711 1.215 2.711 2.711v21.117c0 1.496-1.215 2.711-2.711 2.711h-21.116c-1.496 0-2.711-1.215-2.711-2.711v-21.117c0-1.496 1.215-2.711 2.711-2.711h-0.001z"></path>
<path fill="#003959" style="fill: var(--color21, #003959)" opacity="0.198" d="M6.010 2.109h21.117c1.496 0 2.711 1.215 2.711 2.711v21.117c0 1.496-1.215 2.711-2.711 2.711h-21.117c-1.496 0-2.711-1.215-2.711-2.711v-21.117c0-1.496 1.215-2.711 2.711-2.711z"></path>
<path fill="#003959" style="fill: var(--color21, #003959)" opacity="0.207" d="M6.184 1.936h21.117c1.496 0 2.711 1.215 2.711 2.711v21.117c0 1.496-1.215 2.711-2.711 2.711h-21.117c-1.496 0-2.711-1.215-2.711-2.711v-21.117c0-1.496 1.215-2.711 2.711-2.711z"></path>
<path fill="#003959" style="fill: var(--color21, #003959)" opacity="0.216" d="M6.357 1.762h21.117c1.496 0 2.711 1.215 2.711 2.711v21.117c0 1.496-1.215 2.711-2.711 2.711h-21.117c-1.496 0-2.711-1.215-2.711-2.711v-21.117c0-1.496 1.215-2.711 2.711-2.711z"></path>
<path fill="#003959" style="fill: var(--color21, #003959)" opacity="0.22799999999999998" d="M6.531 1.587h21.117c1.496 0 2.711 1.215 2.711 2.711v21.117c0 1.496-1.215 2.711-2.711 2.711h-21.117c-1.496 0-2.711-1.215-2.711-2.711v-21.117c0-1.496 1.215-2.711 2.711-2.711z"></path>
<path fill="#003959" style="fill: var(--color21, #003959)" opacity="0.237" d="M6.704 1.415h21.117c1.496 0 2.711 1.215 2.711 2.711v21.117c0 1.496-1.215 2.711-2.711 2.711h-21.117c-1.496 0-2.711-1.215-2.711-2.711v-21.117c0-1.496 1.215-2.711 2.711-2.711z"></path>
<path fill="#003959" style="fill: var(--color21, #003959)" opacity="0.24899999999999997" d="M6.878 1.24h21.117c1.496 0 2.711 1.215 2.711 2.711v21.117c0 1.496-1.215 2.711-2.711 2.711h-21.117c-1.496 0-2.711-1.215-2.711-2.711v-21.117c0-1.496 1.215-2.711 2.711-2.711z"></path>
<path fill="#003959" style="fill: var(--color21, #003959)" opacity="0.258" d="M7.051 1.068h21.117c1.496 0 2.711 1.215 2.711 2.711v21.117c0 1.496-1.215 2.711-2.711 2.711h-21.116c-1.496 0-2.711-1.215-2.711-2.711v-21.117c0-1.496 1.215-2.711 2.711-2.711h-0.001z"></path>
<path fill="#003959" style="fill: var(--color21, #003959)" opacity="0.27" d="M7.225 0.893h21.117c1.496 0 2.711 1.215 2.711 2.711v21.117c0 1.496-1.215 2.711-2.711 2.711h-21.117c-1.496 0-2.711-1.215-2.711-2.711v-21.117c0-1.496 1.215-2.711 2.711-2.711z"></path>
<path fill="#003959" style="fill: var(--color21, #003959)" opacity="0.279" d="M7.399 0.719h21.117c1.496 0 2.711 1.215 2.711 2.711v21.117c0 1.496-1.215 2.711-2.711 2.711h-21.117c-1.496 0-2.711-1.215-2.711-2.711v-21.117c0-1.496 1.215-2.711 2.711-2.711z"></path>
<path fill="#003959" style="fill: var(--color21, #003959)" opacity="0.291" d="M7.572 0.546h21.117c1.496 0 2.711 1.215 2.711 2.711v21.117c0 1.496-1.215 2.711-2.711 2.711h-21.117c-1.496 0-2.711-1.215-2.711-2.711v-21.117c0-1.496 1.215-2.711 2.711-2.711z"></path>
<path fill="#003959" style="fill: var(--color21, #003959)" opacity="0.3" d="M7.746 0.372h21.117c1.496 0 2.711 1.215 2.711 2.711v21.117c0 1.496-1.215 2.711-2.711 2.711h-21.117c-1.496 0-2.711-1.215-2.711-2.711v-21.117c0-1.496 1.215-2.711 2.711-2.711z"></path>
<path fill="#09bad4" style="fill: var(--color22, #09bad4)" d="M8.172 0.053h21.117c1.496 0 2.711 1.215 2.711 2.711v21.117c0 1.496-1.215 2.711-2.711 2.711h-21.117c-1.496 0-2.711-1.215-2.711-2.711v-21.117c0-1.496 1.215-2.711 2.711-2.711z"></path>
<path fill="#768889" style="fill: var(--color23, #768889)" d="M7.746 0.372h21.117c1.496 0 2.711 1.215 2.711 2.711v21.117c0 1.496-1.215 2.711-2.711 2.711h-21.117c-1.496 0-2.711-1.215-2.711-2.711v-21.117c0-1.496 1.215-2.711 2.711-2.711z"></path>
<path fill="#21a3ad" style="fill: var(--color24, #21a3ad)" d="M31.787 23.727c0 1.468-1.214 2.657-2.711 2.657h-21.117c-1.497 0-2.711-1.189-2.711-2.657v-20.697c0-1.468 1.214-2.657 2.711-2.657h21.117c1.497 0 2.711 1.189 2.711 2.657v20.697z"></path>
<path fill="#a0a0a0" style="fill: var(--color25, #a0a0a0)" d="M26.773 3.627c-1.015-0.47-2.358 0.254-2.983 1.608l-4.733 10.234c-0.625 1.354-1.924 1.528-2.884 0.387l-3.261-3.871c-0.96-1.14-2.446-1.484-3.302-0.764-0.856 0.721-0.769 2.243 0.191 3.383l7.378 8.761c0.96 1.14 2.259 0.966 2.884-0.387l7.416-16.038c0.625-1.354 0.308-2.845-0.708-3.315l0.001 0.001z"></path>
<path fill="#09bad4" style="fill: var(--color22, #09bad4)" d="M27.093 3.308c-1.015-0.47-2.358 0.254-2.983 1.608l-4.733 10.234c-0.625 1.354-1.924 1.528-2.884 0.387l-3.261-3.871c-0.96-1.14-2.446-1.484-3.302-0.764-0.856 0.721-0.769 2.243 0.191 3.383l7.378 8.761c0.96 1.14 2.259 0.966 2.884-0.387l7.416-16.038c0.625-1.354 0.308-2.845-0.708-3.315l0.001 0.001z"></path>
<path fill="#829a5e" style="fill: var(--color26, #829a5e)" d="M26.879 3.521c-1.015-0.47-2.358 0.254-2.983 1.608l-4.733 10.234c-0.625 1.354-1.924 1.528-2.884 0.387l-3.261-3.871c-0.96-1.14-2.446-1.484-3.302-0.764-0.856 0.721-0.769 2.243 0.191 3.383l7.378 8.761c0.96 1.14 2.259 0.966 2.884-0.387l7.416-16.038c0.625-1.354 0.308-2.845-0.708-3.315l0.001 0.001z"></path>
<path fill="#caff00" style="fill: var(--color27, #caff00)" d="M26.54 4.421c-1.015-0.47-2.358 0.254-2.983 1.608l-4.733 10.234c-0.625 1.354-1.924 1.528-2.884 0.387l-3.261-3.871c-0.96-1.14-2.446-1.484-3.302-0.764-0.856 0.721-0.769 2.243 0.191 3.383l7.378 8.762c0.96 1.14 2.259 0.966 2.884-0.388l7.416-16.038c0.625-1.354 0.308-2.845-0.707-3.315l0.001 0.001z"></path>
</symbol>
<symbol id="icon-close" viewBox="0 0 32 32">
<path stroke-linejoin="round" stroke-linecap="round" stroke-miterlimit="4" stroke-width="0.9412" d="M9.333 9.333l13.333 13.333M9.333 22.667l13.333-13.333"></path>
</symbol>
</defs>
</svg>
